{"title":"Liv.and.Maddie.S03E08.WEBRiP.x264-QCF","uid":12789262,"size":121298466,"categoryP":"video","categoryS":"tv_shows","magnet":"?xt=urn:btih:61a948d5a5449261ee5287f151430e435142daf5&amp;dn=Liv.and.Maddie.S03E08.WEBRiP.x264-QCF&amp;tr=udp%3A%2F%2Ftracker.leechers-paradise.org%3A6969&amp;tr=udp%3A%2F%2Fzer0day.ch%3A1337&amp;tr=udp%3A%2F%2Fopen.demonii.com%3A1337&amp;tr=udp%3A%2F%2Ftracker.coppersurfer.tk%3A6969&amp;tr=udp%3A%2F%2Fexodus.desync.com%3A6969","seeders":0,"leechers":1,"uploader":"TheRival","files":3,"time":1447894714,"description":"Video\r\nID                                       : 1\r\nFormat                                   : AVC\r\nFormat/Info                              : Advanced Video Codec\r\nFormat profile                           :   \r\nFormat settings, CABAC                   : Yes\r\nFormat settings, ReFrames                : 2 frames\r\nCodec ID                                 : avc1\r\nCodec ID/Info                            : Advanced Video Coding\r\nDuration                                 : 23mn 18s\r\nSource duration                          : 23mn 18s\r\nBit rate                                 : 600 Kbps\r\nMaximum bit rate                         : 1 187 Kbps\r\nWidth                                    : 768 pixels\r\nHeight                                   : 432 pixels\r\nDisplay aspect ratio                     : 16:9\r\nFrame rate mode                          : Variable\r\nFrame rate                               : 23.976 fps\r\nOriginal frame rate                      : 24.000 fps\r\nMinimum frame rate                       : 5.994 fps\r\nMaximum frame rate                       : 23.987 fps\r\nColor space                              : YUV\r\nChroma subsampling                       : 4:2:0\r\nBit depth                                : 8 bits\r\nScan type                                : Progressive\r\nBits/(Pixel*Frame)                       : 0.075\r\nStream size                              : 99.3 MiB (86%)\r\nSource stream size                       : 99.3 MiB (86%)\r\nWriting library                          : x264 core 115 r1995M 5a37283\r\nEncoding settings                        : cabac=1 / ref=2 / deblock=1:0:0 / analyse=0x1:0x111 / me=hex / subme=2 / psy=1 / psy_rd=1.00:0.00 / mixed_ref=0 / me_range=16 / chroma_me=1 / trellis=0 / 8x8dct=0 / cqm=0 / deadzone=21,11 / fast_pskip=1 / chroma_qp_offset=0 / threads=1 / sliced_threads=0 / nr=250 / decimate=1 / interlaced=0 / bluray_compat=0 / constrained_intra=0 / bframes=0 / weightp=1 / keyint=250 / keyint_min=24 / scenecut=40 / intra_refresh=0 / rc_lookahead=10 / rc=2pass / mbtree=1 / bitrate=600 / ratetol=1.0 / qcomp=0.60 / qpmin=5 / qpmax=69 / qpstep=4 / cplxblur=20.0 / qblur=0.5 / ip_ratio=1.40 / aq=1:1.00\r\nEncoded date                             : UTC 1904-01-01 00:00:00\r\nTagged date                              : UTC 2015-11-16 23:12:14\r\n\r\nAudio\r\nID                                       : 2\r\nFormat                                   : AAC\r\nFormat/Info                              : Advanced Audio Codec\r\nFormat profile                           : HE-AAC / LC\r\nCodec ID                                 : 40\r\nDuration                                 : 23mn 18s\r\nBit rate mode                            : Variable\r\nBit rate                                 : 96.0 Kbps\r\nMaximum bit rate                         : 102 Kbps\r\nChannel(s)                               : 2 channels\r\nChannel positions                        : Front: L R\r\nSampling rate                            : 48.0 KHz / 24.0 KHz\r\nCompression mode                         : Lossy\r\nStream size                              : 15.8 MiB (14%)\r\nEncoded date                             : UTC 2015-11-16 23:12:14\r\nTagged date                              : UTC 2015-11-16 23:12:14\r\n\r\nText\r\nID                                       : 3\r\nFormat                                   : Timed Text\r\nCodec ID                                 : tx3g\r\nDuration                                 : 23mn 13s\r\nBit rate mode                            : Variable\r\nBit rate                                 : 101 bps\r\nStream size                              : 17.2 KiB (0%)\r\nTitle                                    : LAM_308_ASKHERMOREAROONE_EPISODE_6c54c329-2558-4bf1-83d3-dd0bf09f365c_10050526.srt\r\nEncoded date                             : UTC 2015-11-16 23:12:14\r\nTagged date                              : UTC 2015-11-16 23:12:14","torrent":{"xt":"urn:btih:61a948d5a5449261ee5287f151430e435142daf5","amp;dn":"Liv.and.Maddie.S03E08.WEBRiP.x264-QCF","amp;tr":["udp%3A%2F%2Ftracker.leechers-paradise.org%3A6969","udp%3A%2F%2Fzer0day.ch%3A1337","udp%3A%2F%2Fopen.demonii.com%3A1337","udp%3A%2F%2Ftracker.coppersurfer.tk%3A6969","udp%3A%2F%2Fexodus.desync.com%3A6969"],"infoHash":"61a948d5a5449261ee5287f151430e435142daf5","infoHashBuffer":{"type":"Buffer","data":[97,169,72,213,165,68,146,97,238,82,135,241,81,67,14,67,81,66,218,245]},"announce":[],"urlList":[]}}